# xmcd
#
# Track frame offsets: 
#        182
#        13120
#        26212
#        38617
#        49927
#        64590
#        78057
#        90327
#        104897
#        125090
#        144022
#        157325
#        173472
#        190172
#        208167
#        224080
#        247490
#        262097
#        276522
#        297660
#        313175
#        328770
#
# Disc length: 4614 seconds
#
# Revision: 4
# Processed by: cddbd v1.5.2PL0 Copyright (c) Steve Scherf et al.
# Submitted via: ExactAudioCopyFreeDBPlugin 1.0
#
DISCID=61120416
DTITLE=Muddy Waters - The Complete Muddy Waters on Chess Records, 1947
DTITLE=1967 [Charly Red Box]
DYEAR=1992
DGENRE=Blues
TTITLE0=Elevate Me Mama
TTITLE1=So Glad I'm Living
TTITLE2=My Love Strikes Like Lightning
TTITLE3=Early in the Morning
TTITLE4=One More Mile
TTITLE5=13 Highway
TTITLE6=You Don't Have to Go
TTITLE7=Things I Used to Do
TTITLE8=Wee Wee Baby
TTITLE9=Sitting and Thinking
TTITLE10=Clouds in My Heart
TTITLE11=Got My Mojo Working
TTITLE12=She's 19 Years Old
TTITLE13=My Home is in the Delta
TTITLE14=Long Distance
TTITLE15=My Captain
TTITLE16=Good Morning Little School Girl
TTITLE17=You Gonna Need My Help
TTITLE18=Cold Weather Blues
TTITLE19=Big Leg Woman
TTITLE20=Country Boy
TTITLE21=Feel Like Going Home
EXTD=
EXTT0=
EXTT1=
EXTT2=
EXTT3=
EXTT4=
EXTT5=
EXTT6=
EXTT7=
EXTT8=live
EXTT9=live
EXTT10=live
EXTT11=live
EXTT12=live
EXTT13=
EXTT14=
EXTT15=
EXTT16=
EXTT17=
EXTT18=
EXTT19=
EXTT20=
EXTT21=
PLAYORDER=
